<svg width="40" height="40" viewBox="0 0 40 40" fill="none" xmlns="http://www.w3.org/2000/svg">
<g clip-path="url(#clip0_1001_731)">
<rect width="40" height="40" fill="#F1F3F7"/>
<path fill-rule="evenodd" clip-rule="evenodd" d="M20.0002 13.6C18.6045 13.6 17.473 14.7315 17.473 16.1272C17.473 17.5229 18.6045 18.6544 20.0002 18.6544C21.396 18.6544 22.5274 17.5229 22.5274 16.1272C22.5274 14.7315 21.396 13.6 20.0002 13.6ZM16.2344 16.1272C16.2344 14.0474 17.9204 12.3613 20.0002 12.3613C22.0801 12.3613 23.7661 14.0474 23.7661 16.1272C23.7661 18.207 22.0801 19.893 20.0002 19.893C17.9204 19.893 16.2344 18.207 16.2344 16.1272Z" fill="#6D758F"/>
<path fill-rule="evenodd" clip-rule="evenodd" d="M15.2761 22.4425C16.4079 21.7669 17.9392 21.3169 20.0003 21.3169C22.0615 21.3169 23.5928 21.7669 24.7246 22.4425C25.8569 23.1184 26.5531 23.9985 26.9773 24.8016L26.9774 24.8017C27.357 25.5205 27.2328 26.2663 26.8019 26.8074C26.3875 27.3278 25.7129 27.6384 24.9888 27.6384H15.0119C14.2877 27.6384 13.6132 27.3278 13.1988 26.8074C12.7679 26.2663 12.6437 25.5205 13.0233 24.8016C13.4475 23.9985 14.1438 23.1184 15.2761 22.4425ZM15.911 23.5061C15.0031 24.048 14.4539 24.7453 14.1186 25.3801L14.1186 25.3801C13.982 25.6388 14.0255 25.8571 14.1677 26.0357C14.3264 26.235 14.6304 26.3997 15.0119 26.3997H24.9888C25.3702 26.3997 25.6742 26.235 25.8329 26.0357C25.9752 25.8571 26.0187 25.6388 25.8821 25.3801C25.5468 24.7453 24.9976 24.048 24.0897 23.5061C23.1813 22.9639 21.8777 22.5556 20.0003 22.5556C18.123 22.5556 16.8194 22.9639 15.911 23.5061Z" fill="#6D758F"/>
</g>
<defs>
<clipPath id="clip0_1001_731">
<rect width="40" height="40" rx="20" fill="white"/>
</clipPath>
</defs>
</svg>
