<svg width="25" height="24" viewBox="0 0 25 24" fill="none" xmlns="http://www.w3.org/2000/svg">
<path fill-rule="evenodd" clip-rule="evenodd" d="M11.708 1.22413C14.326 1.04607 16.9192 1.82719 19.0033 3.42155C21.0874 5.01592 22.5197 7.31448 23.0328 9.88783C23.5187 12.3249 23.1485 14.8506 21.9924 17.0409L23.2097 21.5624C23.3015 21.9032 23.2034 22.2672 22.9526 22.5157C22.7018 22.7641 22.337 22.859 21.997 22.7641L17.5402 21.5203C15.3599 22.6881 12.8401 23.0741 10.4028 22.6058C7.82594 22.1106 5.51749 20.6942 3.9087 18.6213C2.29991 16.5483 1.50082 13.9606 1.66071 11.3414C1.82059 8.72232 2.92852 6.25098 4.77752 4.38911C6.62651 2.52724 9.0901 1.40219 11.708 1.22413ZM17.8094 4.98218C16.1045 3.67788 13.983 3.03888 11.8414 3.18454C9.69973 3.3302 7.68435 4.25057 6.17175 5.7737C4.65915 7.29684 3.75279 9.31855 3.62199 11.4612C3.4912 13.6038 4.14491 15.7207 5.46101 17.4165C6.7771 19.1124 8.66556 20.271 10.7736 20.6761C12.8816 21.0812 15.065 20.705 16.9159 19.6178C17.1459 19.4827 17.4208 19.4469 17.6777 19.5186L20.864 20.4079L19.9919 17.1687C19.924 16.9165 19.9593 16.6477 20.0901 16.4216C21.1644 14.5632 21.5255 12.3772 21.1058 10.272C20.686 8.16685 19.5143 6.28648 17.8094 4.98218Z" fill="#0D171C"/>
</svg>
