<svg width="22" height="22" viewBox="0 0 22 22" fill="none" xmlns="http://www.w3.org/2000/svg">
<path fill-rule="evenodd" clip-rule="evenodd" d="M2.15625 2.15776C2.15625 1.61516 2.59612 1.17529 3.13872 1.17529H18.8582C19.4008 1.17529 19.8407 1.61516 19.8407 2.15776V19.8422C19.8407 20.2346 19.6073 20.5893 19.247 20.7445C18.8867 20.8997 18.4686 20.8258 18.1834 20.5563L10.9985 13.7665L3.81352 20.5563C3.52837 20.8258 3.11025 20.8997 2.74995 20.7445C2.38965 20.5893 2.15625 20.2346 2.15625 19.8422V2.15776ZM4.12119 3.14023V17.562L10.3237 11.7007C10.7024 11.3428 11.2946 11.3428 11.6733 11.7007L17.8758 17.562V3.14023H4.12119Z" fill="#0D171C"/>
</svg>
