<svg width="25" height="24" viewBox="0 0 25 24" fill="none" xmlns="http://www.w3.org/2000/svg">
<path fill-rule="evenodd" clip-rule="evenodd" d="M2.61917 2.50389L22.2686 2.50293C22.6218 2.50291 22.9479 2.69252 23.1226 2.99953C23.2972 3.30654 23.2937 3.6837 23.1132 3.98735L12.9918 21.0175C12.7877 21.3609 12.396 21.5465 12.0009 21.487C11.6059 21.4276 11.2862 21.1348 11.1923 20.7465L8.82191 10.9486L1.93115 4.18765C1.64629 3.90816 1.5588 3.48414 1.70975 3.11473C1.8607 2.74531 2.22011 2.50391 2.61917 2.50389ZM10.8416 10.9408L12.535 17.9401L19.5691 6.10453L10.8416 10.9408ZM18.4684 4.46806L5.02326 4.46871L9.8756 9.22963L18.4684 4.46806Z" fill="#0D171C"/>
</svg>
